<svg xmlns="http://www.w3.org/2000/svg" xmlns:xlink="http://www.w3.org/1999/xlink" width="1920" height="1080" viewBox="0 0 1920 1080"><defs><style>.a{clip-path:url(#b);}.b{fill:#7f9290;}.c{fill:#697e7b;}.d{fill:#a7c5c4;}</style><clipPath id="b"><rect width="1920" height="1080"/></clipPath></defs><g id="a" class="a"><path class="cloud1" d="M1543.228,90.607V91h-287.1v-.747A49.893,49.893,0,0,1,1247.5,91c-25.127,0-45.5-18.618-45.5-41.585S1222.37,7.83,1247.5,7.83a50.2,50.2,0,0,1,5.781.333,68.839,68.839,0,0,1-5.781-27.578c0-43.953,41.969-79.585,93.74-79.585,45.22,0,82.962,27.185,91.789,63.355a60.55,60.55,0,0,1,30.582-8.148c31.409,0,56.872,23.273,56.872,51.981a47.875,47.875,0,0,1-1.057,10.027A47.85,47.85,0,0,1,1549.5,7.83c25.127,0,45.5,18.618,45.5,41.585S1574.63,91,1549.5,91A50.176,50.176,0,0,1,1543.228,90.607Z" transform="translate(-1166 878)"/><path class="cloud2" d="M1387.808,4.785V5H1231.473V4.591a27.03,27.03,0,0,1-4.7.409C1213.092,5,1202-5.191,1202-17.762s11.092-22.762,24.774-22.762a27.2,27.2,0,0,1,3.148.182,37.847,37.847,0,0,1-3.148-15.1c0-24.059,22.853-43.562,51.044-43.562,24.624,0,45.175,14.88,49.982,34.679a32.84,32.84,0,0,1,16.653-4.46c17.1,0,30.968,12.739,30.968,28.453a26.338,26.338,0,0,1-.576,5.488,25.971,25.971,0,0,1,16.38-5.685c13.682,0,24.774,10.191,24.774,22.762S1404.908,5,1391.226,5A27.181,27.181,0,0,1,1387.808,4.785Z" transform="translate(-1057 535)"/><path class="cloud3" d="M287.395.339V0H45.586V.645A41.03,41.03,0,0,0,38.319,0C17.156,0,0,16.07,0,35.894S17.156,71.788,38.319,71.788a41.267,41.267,0,0,0,4.869-.287,60.681,60.681,0,0,0-4.869,23.8C38.319,133.244,73.667,164,117.27,164c38.086,0,69.874-23.465,77.308-54.686a50.052,50.052,0,0,0,25.757,7.033c26.454,0,47.9-20.088,47.9-44.868a42.31,42.31,0,0,0-.89-8.655,39.691,39.691,0,0,0,25.335,8.964c21.163,0,38.319-16.07,38.319-35.894S313.843,0,292.68,0A41.251,41.251,0,0,0,287.395.339Z" transform="translate(870 930) rotate(180)"/><path class="cloud4" d="M1221.308,107.916a13.123,13.123,0,0,1-1.485.084,13.806,13.806,0,0,1-1.634-27.448A47.423,47.423,0,0,1,1202,45.081c0-26.936,23.107-48.772,51.613-48.772a53.807,53.807,0,0,1,23.926,5.546,49.05,49.05,0,0,1-1.276-11.13C1276.264-39.5,1303.86-64,1337.9-64q2.908,0,5.752.235C1349.63-84.153,1368.067-99,1389.886-99c26.659,0,48.271,22.169,48.271,49.516,0,.137,0,.272,0,.408q1.11-.036,2.229-.036c25.217,0,46.938,13.839,56.772,33.757a46.892,46.892,0,0,1,36.8-17.376c25.429,0,46.043,19.5,46.043,43.559,0,17.257-10.609,32.171-25.992,39.223v1.32l-6.56,1.117a48.265,48.265,0,0,1-10.7,1.821L1221.308,108Z" transform="translate(-834.522 735.414) rotate(9)"/><path class="cloud5" d="M1216.3,53.938a9.74,9.74,0,0,1-1.1.062,10.2,10.2,0,0,1-1.21-20.288A35.02,35.02,0,0,1,1202,7.495c0-19.909,17.117-36.049,38.232-36.049a39.929,39.929,0,0,1,17.723,4.1,36.175,36.175,0,0,1-.945-8.227c0-22.341,20.442-40.452,45.658-40.452q2.154,0,4.261.174A35.889,35.889,0,0,1,1341.175-99c19.748,0,35.756,16.386,35.756,36.6,0,.1,0,.2,0,.3q.822-.027,1.651-.027c18.679,0,34.769,10.229,42.053,24.951a34.764,34.764,0,0,1,27.259-12.843c18.837,0,34.106,14.414,34.106,32.2,0,12.755-7.858,23.779-19.253,28.991v.976l-4.859.825a35.824,35.824,0,0,1-7.924,1.346L1216.3,54Z" transform="translate(-722.97 166.749) rotate(9)"/><path class="cloud6" d="M201.437.238V0H31.952V.452A28.746,28.746,0,0,0,26.858,0C12.025,0,0,11.269,0,25.17s12.025,25.17,26.858,25.17a28.912,28.912,0,0,0,3.413-.2A42.567,42.567,0,0,0,26.858,66.83c0,26.6,24.776,48.17,55.337,48.17,26.7,0,48.975-16.454,54.186-38.347a35.07,35.07,0,0,0,18.053,4.931c18.542,0,33.573-14.086,33.573-31.462a29.682,29.682,0,0,0-.624-6.069,27.812,27.812,0,0,0,17.758,6.286C219.974,50.339,232,39.071,232,25.17S219.974,0,205.141,0A28.9,28.9,0,0,0,201.437.238Z" transform="translate(838 384) rotate(180)"/></g></svg>