<svg xmlns="http://www.w3.org/2000/svg" width="392.999" height="190" viewBox="0 0 392.999 190">
  <defs>
    <style>
      .cls-1 {
        fill: #7f9290;
      }
    </style>
  </defs>
  <path id="Union_1" data-name="Union 1" class="cls-1" d="M1543.228,90.607V91h-287.1v-.747A49.893,49.893,0,0,1,1247.5,91c-25.127,0-45.5-18.618-45.5-41.585S1222.37,7.83,1247.5,7.83a50.2,50.2,0,0,1,5.781.333,68.839,68.839,0,0,1-5.781-27.578c0-43.953,41.969-79.585,93.74-79.585,45.22,0,82.962,27.185,91.789,63.355a60.55,60.55,0,0,1,30.582-8.148c31.409,0,56.872,23.273,56.872,51.981a47.875,47.875,0,0,1-1.057,10.027A47.85,47.85,0,0,1,1549.5,7.83c25.127,0,45.5,18.618,45.5,41.585S1574.63,91,1549.5,91A50.176,50.176,0,0,1,1543.228,90.607Z" transform="translate(-1202 99)"/>
</svg>
