<svg xmlns="http://www.w3.org/2000/svg" xmlns:xlink="http://www.w3.org/1999/xlink" width="1920" height="1080" viewBox="0 0 1920 1080">
  <defs>
    <style>
      .cls-1 {
        clip-path: url(#clip-Web_1920_1);
      }

      .cls-2 {
        fill: #e0d2d1;
        stroke: #e0d2d1;
      }

      .cls-3, .cls-4 {
        fill: #816b6b;
      }

      .cls-3 {
        stroke: #707070;
      }

      .cls-4 {
        stroke: #816b6b;
      }

      .cls-5 {
        stroke: none;
      }

      .cls-6 {
        fill: none;
      }

      .cls-7 {
        fill: #fff;
      }
    </style>
    <clipPath id="clip-Web_1920_1">
      <rect width="1920" height="1080"/>
    </clipPath>
  </defs>
  <g id="Web_1920_1" data-name="Web 1920 – 1" class="cls-1">
    <rect class="cls-7" width="1920" height="1080"/>
    <g id="Rectangle_1" data-name="Rectangle 1" class="cls-2" transform="translate(217 318)">
      <rect class="cls-5" width="401" height="762"/>
      <rect class="cls-6" x="0.5" y="0.5" width="400" height="761"/>
    </g>
    <g id="Group_1" data-name="Group 1">
      <g id="Rectangle_2" data-name="Rectangle 2" class="cls-3" transform="translate(270 368)">
        <rect class="cls-5" width="56" height="74"/>
        <rect class="cls-6" x="0.5" y="0.5" width="55" height="73"/>
      </g>
      <g id="Rectangle_3" data-name="Rectangle 3" class="cls-3" transform="translate(351 368)">
        <rect class="cls-5" width="56" height="74"/>
        <rect class="cls-6" x="0.5" y="0.5" width="55" height="73"/>
      </g>
      <g id="Rectangle_4" data-name="Rectangle 4" class="cls-3" transform="translate(432 368)">
        <rect class="cls-5" width="56" height="74"/>
        <rect class="cls-6" x="0.5" y="0.5" width="55" height="73"/>
      </g>
      <g id="Rectangle_5" data-name="Rectangle 5" class="cls-3" transform="translate(513 368)">
        <rect class="cls-5" width="56" height="74"/>
        <rect class="cls-6" x="0.5" y="0.5" width="55" height="73"/>
      </g>
    </g>
    <g id="Group_2" data-name="Group 2" transform="translate(0 98)">
      <g id="Rectangle_2-2" data-name="Rectangle 2" class="cls-3" transform="translate(270 368)">
        <rect class="cls-5" width="56" height="74"/>
        <rect class="cls-6" x="0.5" y="0.5" width="55" height="73"/>
      </g>
      <g id="Rectangle_3-2" data-name="Rectangle 3" class="cls-3" transform="translate(351 368)">
        <rect class="cls-5" width="56" height="74"/>
        <rect class="cls-6" x="0.5" y="0.5" width="55" height="73"/>
      </g>
      <g id="Rectangle_4-2" data-name="Rectangle 4" class="cls-3" transform="translate(432 368)">
        <rect class="cls-5" width="56" height="74"/>
        <rect class="cls-6" x="0.5" y="0.5" width="55" height="73"/>
      </g>
      <g id="Rectangle_5-2" data-name="Rectangle 5" class="cls-3" transform="translate(513 368)">
        <rect class="cls-5" width="56" height="74"/>
        <rect class="cls-6" x="0.5" y="0.5" width="55" height="73"/>
      </g>
    </g>
    <g id="Group_3" data-name="Group 3" transform="translate(0 196)">
      <g id="Rectangle_2-3" data-name="Rectangle 2" class="cls-3" transform="translate(270 368)">
        <rect class="cls-5" width="56" height="74"/>
        <rect class="cls-6" x="0.5" y="0.5" width="55" height="73"/>
      </g>
      <g id="Rectangle_3-3" data-name="Rectangle 3" class="cls-3" transform="translate(351 368)">
        <rect class="cls-5" width="56" height="74"/>
        <rect class="cls-6" x="0.5" y="0.5" width="55" height="73"/>
      </g>
      <g id="Rectangle_4-3" data-name="Rectangle 4" class="cls-3" transform="translate(432 368)">
        <rect class="cls-5" width="56" height="74"/>
        <rect class="cls-6" x="0.5" y="0.5" width="55" height="73"/>
      </g>
      <g id="Rectangle_5-3" data-name="Rectangle 5" class="cls-3" transform="translate(513 368)">
        <rect class="cls-5" width="56" height="74"/>
        <rect class="cls-6" x="0.5" y="0.5" width="55" height="73"/>
      </g>
    </g>
    <g id="Group_4" data-name="Group 4" transform="translate(0 294)">
      <g id="Rectangle_2-4" data-name="Rectangle 2" class="cls-3" transform="translate(270 368)">
        <rect class="cls-5" width="56" height="74"/>
        <rect class="cls-6" x="0.5" y="0.5" width="55" height="73"/>
      </g>
      <g id="Rectangle_3-4" data-name="Rectangle 3" class="cls-3" transform="translate(351 368)">
        <rect class="cls-5" width="56" height="74"/>
        <rect class="cls-6" x="0.5" y="0.5" width="55" height="73"/>
      </g>
      <g id="Rectangle_4-4" data-name="Rectangle 4" class="cls-3" transform="translate(432 368)">
        <rect class="cls-5" width="56" height="74"/>
        <rect class="cls-6" x="0.5" y="0.5" width="55" height="73"/>
      </g>
      <g id="Rectangle_5-4" data-name="Rectangle 5" class="cls-3" transform="translate(513 368)">
        <rect class="cls-5" width="56" height="74"/>
        <rect class="cls-6" x="0.5" y="0.5" width="55" height="73"/>
      </g>
    </g>
    <g id="Group_5" data-name="Group 5" transform="translate(0 392)">
      <g id="Rectangle_2-5" data-name="Rectangle 2" class="cls-3" transform="translate(270 368)">
        <rect class="cls-5" width="56" height="74"/>
        <rect class="cls-6" x="0.5" y="0.5" width="55" height="73"/>
      </g>
      <g id="Rectangle_3-5" data-name="Rectangle 3" class="cls-3" transform="translate(351 368)">
        <rect class="cls-5" width="56" height="74"/>
        <rect class="cls-6" x="0.5" y="0.5" width="55" height="73"/>
      </g>
      <g id="Rectangle_4-5" data-name="Rectangle 4" class="cls-3" transform="translate(432 368)">
        <rect class="cls-5" width="56" height="74"/>
        <rect class="cls-6" x="0.5" y="0.5" width="55" height="73"/>
      </g>
      <g id="Rectangle_5-5" data-name="Rectangle 5" class="cls-3" transform="translate(513 368)">
        <rect class="cls-5" width="56" height="74"/>
        <rect class="cls-6" x="0.5" y="0.5" width="55" height="73"/>
      </g>
    </g>
    <g id="Group_6" data-name="Group 6" transform="translate(0 490)">
      <g id="Rectangle_2-6" data-name="Rectangle 2" class="cls-3" transform="translate(270 368)">
        <rect class="cls-5" width="56" height="74"/>
        <rect class="cls-6" x="0.5" y="0.5" width="55" height="73"/>
      </g>
      <g id="Rectangle_3-6" data-name="Rectangle 3" class="cls-3" transform="translate(351 368)">
        <rect class="cls-5" width="56" height="74"/>
        <rect class="cls-6" x="0.5" y="0.5" width="55" height="73"/>
      </g>
      <g id="Rectangle_4-6" data-name="Rectangle 4" class="cls-3" transform="translate(432 368)">
        <rect class="cls-5" width="56" height="74"/>
        <rect class="cls-6" x="0.5" y="0.5" width="55" height="73"/>
      </g>
      <g id="Rectangle_5-6" data-name="Rectangle 5" class="cls-3" transform="translate(513 368)">
        <rect class="cls-5" width="56" height="74"/>
        <rect class="cls-6" x="0.5" y="0.5" width="55" height="73"/>
      </g>
    </g>
    <g id="Group_7" data-name="Group 7" transform="translate(0 588)">
      <g id="Rectangle_2-7" data-name="Rectangle 2" class="cls-3" transform="translate(270 368)">
        <rect class="cls-5" width="56" height="74"/>
        <rect class="cls-6" x="0.5" y="0.5" width="55" height="73"/>
      </g>
      <g id="Rectangle_3-7" data-name="Rectangle 3" class="cls-3" transform="translate(351 368)">
        <rect class="cls-5" width="56" height="74"/>
        <rect class="cls-6" x="0.5" y="0.5" width="55" height="73"/>
      </g>
      <g id="Rectangle_4-7" data-name="Rectangle 4" class="cls-3" transform="translate(432 368)">
        <rect class="cls-5" width="56" height="74"/>
        <rect class="cls-6" x="0.5" y="0.5" width="55" height="73"/>
      </g>
      <g id="Rectangle_5-7" data-name="Rectangle 5" class="cls-3" transform="translate(513 368)">
        <rect class="cls-5" width="56" height="74"/>
        <rect class="cls-6" x="0.5" y="0.5" width="55" height="73"/>
      </g>
    </g>
    <g id="Rectangle_6" data-name="Rectangle 6" class="cls-2" transform="translate(268 255)">
      <rect class="cls-5" width="299" height="79"/>
      <rect class="cls-6" x="0.5" y="0.5" width="298" height="78"/>
    </g>
    <g id="Group_8" data-name="Group 8" transform="translate(5)">
      <g id="Rectangle_7" data-name="Rectangle 7" class="cls-3" transform="translate(277 276)">
        <rect class="cls-5" width="8" height="42"/>
        <rect class="cls-6" x="0.5" y="0.5" width="7" height="41"/>
      </g>
      <g id="Rectangle_8" data-name="Rectangle 8" class="cls-3" transform="translate(288 276)">
        <rect class="cls-5" width="8" height="42"/>
        <rect class="cls-6" x="0.5" y="0.5" width="7" height="41"/>
      </g>
      <g id="Rectangle_9" data-name="Rectangle 9" class="cls-3" transform="translate(299 276)">
        <rect class="cls-5" width="8" height="42"/>
        <rect class="cls-6" x="0.5" y="0.5" width="7" height="41"/>
      </g>
      <g id="Rectangle_10" data-name="Rectangle 10" class="cls-3" transform="translate(310 276)">
        <rect class="cls-5" width="8" height="42"/>
        <rect class="cls-6" x="0.5" y="0.5" width="7" height="41"/>
      </g>
    </g>
    <g id="Group_9" data-name="Group 9" transform="translate(49)">
      <g id="Rectangle_7-2" data-name="Rectangle 7" class="cls-3" transform="translate(277 276)">
        <rect class="cls-5" width="8" height="42"/>
        <rect class="cls-6" x="0.5" y="0.5" width="7" height="41"/>
      </g>
      <g id="Rectangle_8-2" data-name="Rectangle 8" class="cls-3" transform="translate(288 276)">
        <rect class="cls-5" width="8" height="42"/>
        <rect class="cls-6" x="0.5" y="0.5" width="7" height="41"/>
      </g>
      <g id="Rectangle_9-2" data-name="Rectangle 9" class="cls-3" transform="translate(299 276)">
        <rect class="cls-5" width="8" height="42"/>
        <rect class="cls-6" x="0.5" y="0.5" width="7" height="41"/>
      </g>
      <g id="Rectangle_10-2" data-name="Rectangle 10" class="cls-3" transform="translate(310 276)">
        <rect class="cls-5" width="8" height="42"/>
        <rect class="cls-6" x="0.5" y="0.5" width="7" height="41"/>
      </g>
    </g>
    <g id="Group_10" data-name="Group 10" transform="translate(93)">
      <g id="Rectangle_7-3" data-name="Rectangle 7" class="cls-3" transform="translate(277 276)">
        <rect class="cls-5" width="8" height="42"/>
        <rect class="cls-6" x="0.5" y="0.5" width="7" height="41"/>
      </g>
      <g id="Rectangle_8-3" data-name="Rectangle 8" class="cls-3" transform="translate(288 276)">
        <rect class="cls-5" width="8" height="42"/>
        <rect class="cls-6" x="0.5" y="0.5" width="7" height="41"/>
      </g>
      <g id="Rectangle_9-3" data-name="Rectangle 9" class="cls-3" transform="translate(299 276)">
        <rect class="cls-5" width="8" height="42"/>
        <rect class="cls-6" x="0.5" y="0.5" width="7" height="41"/>
      </g>
      <g id="Rectangle_10-3" data-name="Rectangle 10" class="cls-3" transform="translate(310 276)">
        <rect class="cls-5" width="8" height="42"/>
        <rect class="cls-6" x="0.5" y="0.5" width="7" height="41"/>
      </g>
    </g>
    <g id="Group_11" data-name="Group 11" transform="translate(137)">
      <g id="Rectangle_7-4" data-name="Rectangle 7" class="cls-3" transform="translate(277 276)">
        <rect class="cls-5" width="8" height="42"/>
        <rect class="cls-6" x="0.5" y="0.5" width="7" height="41"/>
      </g>
      <g id="Rectangle_8-4" data-name="Rectangle 8" class="cls-3" transform="translate(288 276)">
        <rect class="cls-5" width="8" height="42"/>
        <rect class="cls-6" x="0.5" y="0.5" width="7" height="41"/>
      </g>
      <g id="Rectangle_9-4" data-name="Rectangle 9" class="cls-3" transform="translate(299 276)">
        <rect class="cls-5" width="8" height="42"/>
        <rect class="cls-6" x="0.5" y="0.5" width="7" height="41"/>
      </g>
      <g id="Rectangle_10-4" data-name="Rectangle 10" class="cls-3" transform="translate(310 276)">
        <rect class="cls-5" width="8" height="42"/>
        <rect class="cls-6" x="0.5" y="0.5" width="7" height="41"/>
      </g>
    </g>
    <g id="Group_12" data-name="Group 12" transform="translate(181)">
      <g id="Rectangle_7-5" data-name="Rectangle 7" class="cls-3" transform="translate(277 276)">
        <rect class="cls-5" width="8" height="42"/>
        <rect class="cls-6" x="0.5" y="0.5" width="7" height="41"/>
      </g>
      <g id="Rectangle_8-5" data-name="Rectangle 8" class="cls-3" transform="translate(288 276)">
        <rect class="cls-5" width="8" height="42"/>
        <rect class="cls-6" x="0.5" y="0.5" width="7" height="41"/>
      </g>
      <g id="Rectangle_9-5" data-name="Rectangle 9" class="cls-3" transform="translate(299 276)">
        <rect class="cls-5" width="8" height="42"/>
        <rect class="cls-6" x="0.5" y="0.5" width="7" height="41"/>
      </g>
      <g id="Rectangle_10-5" data-name="Rectangle 10" class="cls-3" transform="translate(310 276)">
        <rect class="cls-5" width="8" height="42"/>
        <rect class="cls-6" x="0.5" y="0.5" width="7" height="41"/>
      </g>
    </g>
    <g id="Group_13" data-name="Group 13" transform="translate(225)">
      <g id="Rectangle_7-6" data-name="Rectangle 7" class="cls-3" transform="translate(277 276)">
        <rect class="cls-5" width="8" height="42"/>
        <rect class="cls-6" x="0.5" y="0.5" width="7" height="41"/>
      </g>
      <g id="Rectangle_8-6" data-name="Rectangle 8" class="cls-3" transform="translate(288 276)">
        <rect class="cls-5" width="8" height="42"/>
        <rect class="cls-6" x="0.5" y="0.5" width="7" height="41"/>
      </g>
      <g id="Rectangle_9-6" data-name="Rectangle 9" class="cls-3" transform="translate(299 276)">
        <rect class="cls-5" width="8" height="42"/>
        <rect class="cls-6" x="0.5" y="0.5" width="7" height="41"/>
      </g>
      <g id="Rectangle_10-6" data-name="Rectangle 10" class="cls-3" transform="translate(310 276)">
        <rect class="cls-5" width="8" height="42"/>
        <rect class="cls-6" x="0.5" y="0.5" width="7" height="41"/>
      </g>
    </g>
    <g id="Rectangle_7-7" data-name="Rectangle 7" class="cls-3" transform="translate(546 276)">
      <rect class="cls-5" width="8" height="42"/>
      <rect class="cls-6" x="0.5" y="0.5" width="7" height="41"/>
    </g>
    <g id="Rectangle_11" data-name="Rectangle 11" class="cls-4" transform="translate(250 249)">
      <rect class="cls-5" width="336" height="13"/>
      <rect class="cls-6" x="0.5" y="0.5" width="335" height="12"/>
    </g>
    <g id="Rectangle_12" data-name="Rectangle 12" class="cls-3" transform="translate(277 236)">
      <rect class="cls-5" width="282" height="13"/>
      <rect class="cls-6" x="0.5" y="0.5" width="281" height="12"/>
    </g>
  </g>
</svg>
