<svg xmlns="http://www.w3.org/2000/svg" width="300.487" height="194.918" viewBox="0 0 300.487 194.918">
  <defs>
    <style>
      .cls-1 {
        fill: #a7c5c4;
      }
    </style>
  </defs>
  <path id="Union_9" data-name="Union 9" class="cls-1" d="M1216.3,53.938a9.74,9.74,0,0,1-1.1.062,10.2,10.2,0,0,1-1.21-20.288A35.02,35.02,0,0,1,1202,7.495c0-19.909,17.117-36.049,38.232-36.049a39.929,39.929,0,0,1,17.723,4.1,36.175,36.175,0,0,1-.945-8.227c0-22.341,20.442-40.452,45.658-40.452q2.154,0,4.261.174A35.889,35.889,0,0,1,1341.175-99c19.748,0,35.756,16.386,35.756,36.6,0,.1,0,.2,0,.3q.822-.027,1.651-.027c18.679,0,34.769,10.229,42.053,24.951a34.764,34.764,0,0,1,27.259-12.843c18.837,0,34.106,14.414,34.106,32.2,0,12.755-7.858,23.779-19.253,28.991v.976l-4.859.825a35.824,35.824,0,0,1-7.924,1.346L1216.3,54Z" transform="translate(-1178.754 -90.253) rotate(9)"/>
</svg>
