<svg xmlns="http://www.w3.org/2000/svg" width="213.999" height="104" viewBox="0 0 213.999 104">
  <defs>
    <style>
      .cls-1 {
        fill: #7f9290;
      }
    </style>
  </defs>
  <path id="Union_8" data-name="Union 8" class="cls-1" d="M1387.808,4.785V5H1231.473V4.591a27.03,27.03,0,0,1-4.7.409C1213.092,5,1202-5.191,1202-17.762s11.092-22.762,24.774-22.762a27.2,27.2,0,0,1,3.148.182,37.847,37.847,0,0,1-3.148-15.1c0-24.059,22.853-43.562,51.044-43.562,24.624,0,45.175,14.88,49.982,34.679a32.84,32.84,0,0,1,16.653-4.46c17.1,0,30.968,12.739,30.968,28.453a26.338,26.338,0,0,1-.576,5.488,25.971,25.971,0,0,1,16.38-5.685c13.682,0,24.774,10.191,24.774,22.762S1404.908,5,1391.226,5A27.181,27.181,0,0,1,1387.808,4.785Z" transform="translate(-1202 99)"/>
</svg>
