<svg xmlns="http://www.w3.org/2000/svg" width="231.999" height="115" viewBox="0 0 231.999 115">
  <defs>
    <style>
      .cls-1 {
        fill: #697e7b;
      }
    </style>
  </defs>
  <path id="Union_10" data-name="Union 10" class="cls-1" d="M201.437.238V0H31.952V.452A28.746,28.746,0,0,0,26.858,0C12.025,0,0,11.269,0,25.17s12.025,25.17,26.858,25.17a28.912,28.912,0,0,0,3.413-.2A42.567,42.567,0,0,0,26.858,66.83c0,26.6,24.776,48.17,55.337,48.17,26.7,0,48.975-16.454,54.186-38.347a35.07,35.07,0,0,0,18.053,4.931c18.542,0,33.573-14.086,33.573-31.462a29.682,29.682,0,0,0-.624-6.069,27.812,27.812,0,0,0,17.758,6.286C219.974,50.339,232,39.071,232,25.17S219.974,0,205.141,0A28.9,28.9,0,0,0,201.437.238Z" transform="translate(231.999 115) rotate(180)"/>
</svg>
